<?xml version="1.0" encoding="utf-8"?>
<!-- Generator: Adobe Illustrator 24.1.2, SVG Export Plug-In . SVG Version: 6.00 Build 0)  -->
<svg version="1.1" id="Laag_1" xmlns="http://www.w3.org/2000/svg" xmlns:xlink="http://www.w3.org/1999/xlink" x="0px" y="0px"
	 viewBox="0 0 595.28 419.53" style="enable-background:new 0 0 595.28 419.53;" xml:space="preserve">
<style type="text/css">
	.st0{fill:none;}
	.st1{font-family:'Nunito-SemiBold';}
	.st2{font-size:180px;}
</style>
<rect x="195.5" y="168.19" class="st0" width="330.48" height="142.38"/>
<text transform="matrix(1 0 0 1 195.505 294.3164)" class="st1 st2">rio</text>
<g>
	<path d="M318.26,169.4c-1.91,0.38-3.85,0.52-5.79,0.52c-3.88-0.01-7.72-0.57-11.51-1.34c-3.79-0.77-7.52-1.76-11.18-2.8
		c-3.65-1.03-7.24-2.12-10.64-3.04c-1.7-0.45-3.35-0.87-4.88-1.16c-0.76-0.14-1.48-0.26-2.12-0.32c-0.16-0.02-0.31-0.03-0.46-0.04
		c-0.14-0.01-0.31-0.02-0.37-0.01l-0.06,0c-0.02,0-0.1,0-0.15-0.01l-0.16-0.01l-0.08,0c0.17,0.03,0.03,0.01,0.06,0.01l-0.02,0
		l-0.38,0c-2.05,0.07-4.24,0.68-6.39,1.66c-2.15,0.97-4.22,2.26-6.08,3.62c-1.87,1.36-3.54,2.78-4.97,4.11
		c-0.86,0.8-1.63,1.56-2.32,2.26c8.13,10.5,20.85,17.26,35.16,17.26c16.98,0,31.73-9.52,39.21-23.52c-0.44,0.31-0.9,0.6-1.39,0.86
		C322.04,168.41,320.16,169.03,318.26,169.4z"/>
</g>
<g>
	<path d="M285.9,101.27c-24.54,0-44.44,19.9-44.44,44.44c0,2.91,0.28,5.74,0.81,8.49c1.84-1.19,3.91-2.43,6.26-3.63
		c2.92-1.49,6.26-2.94,10.16-4c1.95-0.52,4.05-0.93,6.29-1.13c2.24-0.2,4.63-0.17,7.06,0.19c0.3,0.05,0.61,0.1,0.92,0.16l0.2,0.03
		l0.08,0.02l0.16,0.04l0.44,0.1c0.38,0.08,0.63,0.16,0.93,0.24c0.28,0.08,0.56,0.16,0.83,0.25c1.08,0.34,2.07,0.71,3.02,1.1
		c1.9,0.77,3.65,1.6,5.37,2.44c3.42,1.68,6.7,3.42,9.97,5.07c3.26,1.65,6.5,3.22,9.71,4.56c3.21,1.33,6.39,2.44,9.46,3.05
		c3.05,0.61,5.99,0.7,8.44-0.06c1.23-0.37,2.33-0.97,3.3-1.75c0.97-0.78,1.79-1.74,2.47-2.79c1.29-2,2.06-4.22,2.59-6.26
		c0.27-2,0.42-4.03,0.42-6.1C330.33,121.17,310.44,101.27,285.9,101.27z M295.33,137.56c-2.65,6.7-9.32,10.35-14.9,8.15
		c-5.59-2.2-7.97-9.43-5.33-16.13c2.65-6.7,9.32-10.35,14.9-8.15C295.6,123.64,297.98,130.86,295.33,137.56z"/>
</g>
<g>
	<path d="M285.9,93.13c-28.99,0-52.58,23.59-52.58,52.58c0,4.73,0.63,9.31,1.81,13.67c1.11,4.1,2.69,8,4.7,11.64
		c8.96,16.24,26.25,27.26,46.07,27.26c28.99,0,52.58-23.59,52.58-52.58C338.47,116.72,314.89,93.13,285.9,93.13z M285.9,195.02
		c-15.53,0-29.41-7.22-38.46-18.48c-4.48-5.58-7.78-12.15-9.5-19.33c-0.88-3.69-1.36-7.54-1.36-11.5
		c0-27.19,22.12-49.31,49.31-49.31c27.19,0,49.31,22.12,49.31,49.31C335.21,172.9,313.09,195.02,285.9,195.02z"/>
</g>
</svg>
